<svg id="Layer_1" data-name="Layer 1" xmlns="http://www.w3.org/2000/svg" width="256" height="256" viewBox="0 0 256 256"><title>Artboard 1</title><path d="M227.5,40.8V205.5H32.7c-2.4,0-5.9.6-8.3,0-4.9-1.2-1.6.7-2.8-2.8s0-12.1,0-16.7V46.4c0-.9-.4-5.1,0-5.6s7.3,0,8.3,0H227.5Zm-43,112.5A23.9,23.9,0,0,0,183,144a18.5,18.5,0,0,0-4.1-6.5,15.9,15.9,0,0,0-3.3-2.5l-.6-.3-1.1-.5h0l-1.7-.6h0l-1.2-.2h-.7l-1.3-.2h-2.1l2-2.4c2.1-2.7,3.9-5.2,4.7-8.3a19,19,0,0,0,.3-3.5.8.8,0,0,0-.1-.4V118a10.4,10.4,0,0,0-7.4-9.5l-.7-.2h-.2c-2.7-1-2.3-.6-2.7-1.9a1.5,1.5,0,0,0-.1-.7l-.5-.7c0-.1,0-.2-.1-.2a17.7,17.7,0,0,0-2.6-4.1c0-.1,0-.1-.1-.1a8.8,8.8,0,0,0-1.2-1.7,52,52,0,0,0-3.5-4.4l-.7-.6h0c-1.2-1.6-1.4-.9-1.8-2.8s.4-2.5.6-3.7.1-.3.1-.4V84.8a2.8,2.8,0,0,0-.1-.9,3.4,3.4,0,0,0-.1-1c0-.3-.1-.6-.1-1h0c-.1-.3-.1-.6-.2-.9a26.8,26.8,0,0,0-4.9-10.4v-.2c-1.1-1.6-3.1-4.5-4.7-5a.9.9,0,0,0-1.2-.1c-.3.3-.1,6.3-.4,7.4a24.3,24.3,0,0,1-.9,3l-.3.6a16.3,16.3,0,0,1-1.1,2.3h0a7.1,7.1,0,0,1-1.6,1.8l-1.2.9h-.8l-.8-.9-.3-.3c0-.7,0-1.7-.7-2s-2.9.8-4.2,1.9l-.3.2c-.5-.5,1.9-3.3,2.4-4.1-5.2-1.3-11.4,4.3-14.8,7.6l-.6.7a15.5,15.5,0,0,1-1.8,1.5H114a5.8,5.8,0,0,1-2.4.1l-1.9-.5c-1.5-.5-3.9-1.1-5.2-2l-.3-.2-.2-.3-.6-.8h0a2.5,2.5,0,0,0-.4-.7,21.8,21.8,0,0,1-1.2-2.2l-.6-.9a36.8,36.8,0,0,0-3.4-5.8c-.1-.1-.1-.2-.2-.2h-.3v.2c-1.1,1.5-.9,7.7-1.1,10.9a5.3,5.3,0,0,1-.1,1.4c-1,5.8-.9,10.9,1.6,16.2.8,1.7,3.3,4,3.7,5.5s-.4,5.2-.9,7.4c-1.4,5.5-3,10.8-3.9,16.4-.1.9-1.5,6.8-.6,7.3s3.8-3.8,4.5-4.8a62.2,62.2,0,0,0,3.9,22.2l-5.6-1.8-1.7-.6h-.1c-5.3-1.9-11.8-4.7-14.7-7.6h0l-.5-.5a6.5,6.5,0,0,1-.9-1.9,5.7,5.7,0,0,1,0-2.6c.4-2.6,1.7-4.9-1-7.2l-.7-.5c-3.5-2.5-8.3-.3-10.8,2.6l-.8-.8a11.7,11.7,0,0,0-5.3-2.7h-.6a6.8,6.8,0,0,0-4.6.7,4.1,4.1,0,0,0-2,1.5v.2a6.3,6.3,0,0,0-.7,3,1.7,1.7,0,0,1-.1.7c-.3,3.4-.7,2.6-2.1,5.6a2.5,2.5,0,0,0-.4.7,10.4,10.4,0,0,1-.4,1,9.2,9.2,0,0,0,0,5.7l.3.7a9.7,9.7,0,0,0,4,4.3c1,.6,4.7,1.4,7.9,1.6h.7c1.9.1,3.5-.1,4-1l.6.2h-.1a136.9,136.9,0,0,0,19.3,11,49.2,49.2,0,0,0,6,2.3c4.7,1.6,9.4,2.8,14.1,4.6,10.9,4.1,25.5,4.3,37.6,1.3l4.4-1.3,2.7-1.1a5.9,5.9,0,0,0,1.4-.6l1-.5,2-1.1,1-.6a26,26,0,0,0,3.8-2.7l1.4-1.4.4-.5a14.2,14.2,0,0,1,2.8-2.7l.4-.3h.4c1.9-.4,5.2,2,7.4,2.1h2.8a7.7,7.7,0,0,0,4.1-2.1,7.1,7.1,0,0,0,1-1.4c.2-.4.5-.8.7-1.3l.4-1.2c.1-.4.2-.7.3-1.2s.1-.5.2-.7.1-1,.2-1.4a1.9,1.9,0,0,1,.1-.8Z" fill="#fff"/><path d="M183,144a23.9,23.9,0,0,1,1.5,9.3v1.3a1.9,1.9,0,0,0-.1.8c-.1.4-.1.9-.2,1.4s-.1.5-.2.7a10.4,10.4,0,0,1-.3,1.2l-.4,1.2c-.2.5-.5.9-.7,1.3l-.6.9a7.8,7.8,0,0,1-4.5,2.6h-2.4a11.2,11.2,0,0,1-3.4-1.1,10.1,10.1,0,0,0,5.5.1l1.1-.4a6.9,6.9,0,0,0,3.9-3.2l.6-1.4a8.8,8.8,0,0,0,.5-1.5l.3-1.6a25.5,25.5,0,0,0-1-10,.4.4,0,0,0-.1-.3c0-.2-.1-.3-.1-.4l-.6-1.5-.3-.7c-3-6.3-7.5-8.1-13-8.4h-.6a75.6,75.6,0,0,0-8.2.1,33.5,33.5,0,0,1,8,4.1l.6.6.6.5a11.2,11.2,0,0,1,1.7,2,4.3,4.3,0,0,1,.4.7c1.4,2.4,3.2,6.7,2.4,9.2,0,.1-.1.2-.1.4s-3.7-10.3-5.5-12a17,17,0,0,0-6.6-3.9c-1.6-.3-5.2,1.1-5.9-.9-2.7.7-4.6,2.5-6.7,4.2h.7c1.6.1,4.4-.8,6.2-1l2.3.2h.5a9.7,9.7,0,0,1,3.3,1l.7.4.3.3.6.5.5.5.4.5c.8,1.3.6,2.8.4,4.7v.3c0,.3-.1.6-.1,1a21.4,21.4,0,0,0,1.3,9,1.4,1.4,0,0,0,.2.6.8.8,0,0,1,.2.5l.3.6.3.6.6.9.8,1,.4.4.4.4a4.9,4.9,0,0,0,1.5,1,4.9,4.9,0,0,0-2.8-.5h-.7l-.4.3a10,10,0,0,0-2.2,2l.2-.4h0a5.8,5.8,0,0,0,1.3-2.9,5.7,5.7,0,0,0-.5-2.4,48.4,48.4,0,0,1-1.7-5.4c.1-1.8.5-5.2,0-6.6h0c-.1-.3-.2-.6-.4-.7s-8.7,2.8-12.6,4.5h-.4l-.4.2-1.1.4.3.7c1.2,2.6,2.3,6.5-.2,8.6h0l-.6.3-.8.5c-1.8.7-3,.4-3.8-.5v-.2a6,6,0,0,1-1.1-2.1c0-.2-.1-.4-.1-.6a35,35,0,0,1-.5-4.1c-5.9.7-12,1.8-18,1.8s-12.9-2.1-18.7-.9a1.5,1.5,0,0,1,1.2,1.3h-.2c-1.6.6-12.1-4.8-17.9-7.8H88a76,76,0,0,0,8.9,3.7H97l1.7.6,5.6,1.8a62.2,62.2,0,0,1-3.9-22.2c-.7,1-3.1,5.4-4.5,4.8s.5-6.4.6-7.3c.9-5.6,2.5-10.9,3.9-16.4.5-2.2,1.6-5.1.9-7.4s-2.9-3.8-3.7-5.5C95.1,96,95,90.9,96,85.1a5.3,5.3,0,0,0,.1-1.4c.2-3.2.2-9.4,1.1-10.9v-.2h.3c.1,0,.1.1.2.2a36.8,36.8,0,0,1,3.4,5.8l.6.9a21.8,21.8,0,0,0,1.2,2.2,2.5,2.5,0,0,1,.4.7h0l.6.8.2.3.3.2a17.9,17.9,0,0,0,6.4,2.4h.7a3.8,3.8,0,0,0,2.4-.1h.1a6.6,6.6,0,0,0,1.8-1.5l.6-.7c3.4-3.3,9.6-8.9,14.8-7.6-.5.8-2.9,3.6-2.4,4.1l.3-.2c3.9-2.9,3.2-1.6,4.9.1,0,.4,0,.7.1.8a2.6,2.6,0,0,0,1,.4h0c.3.3.3.4.8,0h0a5.6,5.6,0,0,0,2.8-2.7h0a9.7,9.7,0,0,0,1.1-2.3l.3-.6a27.9,27.9,0,0,0,1.2-4.1c.3-1.4-.3-6,.6-6.3h.7c1.7.9,4.1,4.1,4.5,4.8l.2.2v.2l.4.6a29,29,0,0,1,4.5,9.8c.1.3.1.6.2.9h0c0,.4.1.7.1,1a3.4,3.4,0,0,1,.1,1,2.8,2.8,0,0,1,.1.9V87c0,.1-.1.3-.1.4s-1.3,3.9-.9,4.8,1.3,1.2,2.1,1.7,2.5,2.9,3.6,4.4l1.8,2.3c.1,0,.1,0,.1.1s1.8,2.8,2.7,4.3a11.4,11.4,0,0,1,.6,1.4,1.6,1.6,0,0,0,.3,1.6,5.3,5.3,0,0,0,2.6.3c4,1.5,6.4,3,7.6,7.2.2.9.4,1.7.5,2.5v.5a.8.8,0,0,1,.1.4,19,19,0,0,1-.3,3.5c-.8,3-2.6,5.6-4.7,8.3l-2,2.4H169l1.3.2h.7l1.2.2h0l1.7.6h0l1.1.5.6.3a15.9,15.9,0,0,1,3.3,2.5A18.5,18.5,0,0,1,183,144Zm-15.5-13.6a13.6,13.6,0,0,0,4.7-14.9h0c-.1-.4-.3-.8-.4-1.1l-.2-.3h-.1c-1.3.3-1.8,4.6-3.4,6.6a.1.1,0,0,1-.1.1l-.3.3a7,7,0,0,1-1.7.9h-2a26.3,26.3,0,0,1-3-1.4h0l-1.1-.5h-.3l-.5-.2a22.7,22.7,0,0,1-3.6-1.1h-.1a2.7,2.7,0,0,1-1-2h0a4.4,4.4,0,0,1,.2-1.5,1.6,1.6,0,0,1,.5-1c.1-.2.1-.3.3-.4s2.6-2.2,2.7-3.2c-5.8-1.9-11.6.3-16.8,3.2l-1.4.7-.7.4-1.1.6a32.7,32.7,0,0,0-3.6,2.5l-.7.6-.6.6c-1.2,1.1-2,3.7-3.2,4.6a1.9,1.9,0,0,1-1,.3,12.4,12.4,0,0,1,3.4-5.2,28.8,28.8,0,0,1,3.9-3l1-.6,2-1.1,3.1-1.6,1-.6a31.4,31.4,0,0,1,7.4-2.8c2.9-.7,5.6.8,8.1.5-.3-.4-.6-.5-.2-.9a3.8,3.8,0,0,0,1.3.9.7.7,0,0,0,.8-.2,1.2,1.2,0,0,0,.2-.7,16.1,16.1,0,0,0-1.5-5.9l-.3-.4a20.6,20.6,0,0,0-3.5-4.2l-.6-.7-.6-.6-1.3-1.2c-1.3-1.3-2.5-2.5-3.7-3.9h.4l.6-.2h0c2-1.2,1.5-6.6.9-9.9,0-.4-.1-.7-.1-1a.4.4,0,0,1-.1-.3c0-.2-.1-.3-.1-.4s-.1-.3-.1-.5l-.3-.9a20.2,20.2,0,0,0-2.9-5.9,27.9,27.9,0,0,0-4.2-4.9h-.1l-.7-.6a3.8,3.8,0,0,1,0,1.5,29.7,29.7,0,0,1-1.9,8.9v.2a1.4,1.4,0,0,1-.2.6h0c-1.1,2.3-2.5,4.2-4.3,4.7l-.9.2a1.7,1.7,0,0,1-1.5-1h-.1c-.2-.6-.3-1.3-1.1-1.6l-.5-.2c0-.3-.1-.4-1-.4s-2.8,3.3-4.6,3.5c0-2,1.6-4.2,2.4-6h-1.2a14.5,14.5,0,0,0-4.7,1.9l-.8.5h-.1l-.9.6-.9.7h-.1l-.7.6c-1.1,1-1.8,2.7-2.8,3.9l-.2.2a4.6,4.6,0,0,1-2,1.4h-.1c-1.3.3-3.4-.2-5.4-.9h-.3a21.1,21.1,0,0,1-4-2c-3.3-2.2-4-5.5-5.9-8.9a2.5,2.5,0,0,1-.4-.7c-.9.3-2.1,15.3-2.1,17.2a8.6,8.6,0,0,0,.1,1.6c.4,3.2,1.9,5.4,3.4,7.8l.9,1.6a2.5,2.5,0,0,0,.4.7h0a5.4,5.4,0,0,1,.5,1.1l.3.7a9.2,9.2,0,0,1,.4,2.9c0,.4-.1.7-.1,1.1h0a3.6,3.6,0,0,0-.2,1.1,6.4,6.4,0,0,0-.2.7,2.5,2.5,0,0,1-.2.7,21.7,21.7,0,0,1-.7,2.4,2.4,2.4,0,0,1-.2.8.9.9,0,0,0-.1.5l-.3.7c-1.6,6.1-3.2,12.1-3.2,18.4,1.3.4,3.7-4.5,3.7-5.6s1.2,4,1.2,7.9v.2c-.2,3.4-.3,6.8.6,8a3.3,3.3,0,0,0,.3.6c3.3,3.5,13.7,3.3,18.5,3.3h.5c12.4,0,25.4-3.4,36.6-8.5a.4.4,0,0,0-.1-.3c-.9-1.6-7.3-.4-9.4.1h-.2l-1.1.4-1.1.5-1.1.5h0l-1.1.5-.6.2c-2.1.9-4.1,1.4-6.2.6h0l-.8-.3c4.4-2.2,7.9-2.7,11.9-5.6l1.4-.9a22.1,22.1,0,0,1,8.3-2.8l2-.4a14.8,14.8,0,0,0,5.4-2.1,8.3,8.3,0,0,0,1.5-1.1Zm1.7-18.2h.2c-1.5-5.8-11.4-1.9-13.3,1.5s3.5,6.4,6.1,3c-2.3-.9-2-.3-3.7,1-.4-4.1,8.3-2.4,2.5,1.3.1.1.2.3.4.4a4.8,4.8,0,0,0,2.1,1.2l.5.2h1.8a2.8,2.8,0,0,0,2.5-3.1c.1-.1,0-.2,0-.4a14.3,14.3,0,0,0-1.1-2.1h0l.9.4h1.1c.3-.3.3-.9-.1-1.6l-.6-.8a13.3,13.3,0,0,1-1.4,1.9,5.1,5.1,0,0,1-.2-1.3v-.2h0C167.1,113,167.7,112.6,169.2,112.2Zm-7.4,33c1.1-1.2,2.4-1.3.8-3s-4.6.7-6.4,1.4a105.7,105.7,0,0,1-19,5.5,73.7,73.7,0,0,1-34.3-1.7c2.3,6.5,3.4,7.1,10.4,7.6a106.8,106.8,0,0,0,19.6-.4,81.5,81.5,0,0,0,14.2-3.2C151.4,150.1,158.5,148.4,161.8,145.2Zm-16.8,14c4.4,3.5,6.3-4.5,2.6-6.1a11.7,11.7,0,0,1-.5,1.1c-1.6-.8-1.7-2-3.4-.4S144,158.4,145,159.2Z" fill="#231f20"/><path d="M184.5,153.3v0Z"/><path d="M184.2,156.8c.1-.5.1-1,.2-1.4S184.3,156.3,184.2,156.8Z"/><path d="M183.7,158.7a10.4,10.4,0,0,0,.3-1.2C183.9,158,183.8,158.3,183.7,158.7Z"/><path d="M182.6,145.8a25.5,25.5,0,0,1,1,10A25.5,25.5,0,0,0,182.6,145.8Z" fill="#fff"/><path d="M182.6,145.8a25.5,25.5,0,0,1,1,10l-.3,1.6a8.8,8.8,0,0,1-.5,1.5l-.6,1.4a6.9,6.9,0,0,1-3.9,3.2l-1.1.4a9.8,9.8,0,0,1-5.7-.2l-.9-.4a6.2,6.2,0,0,1-1.7-1.1l-.4-.4-.4-.4-.8-1-.6-.9-.3-.6-.3-.6a.8.8,0,0,0-.2-.5,1.4,1.4,0,0,1-.2-.6,21.7,21.7,0,0,1-1.3-9c0-.4.1-.7.1-1v-.3c.2-1.9.4-3.3-.4-4.7a1,1,0,0,0-.4-.5l-.5-.5-.6-.5-.3-.3-.7-.4a9.7,9.7,0,0,0-3.3-1h-.5l-1.5-.2h-1.2c-1.4.1-4.2,1.1-5.8,1h-.7c2.1-1.7,4-3.5,6.7-4.2.7,2,4.3.6,5.9.9a17,17,0,0,1,6.6,3.9c1.8,1.7,5.2,11.9,5.5,12s.1-.3.1-.4c.8-2.6-.9-6.7-2.4-9.2a4.3,4.3,0,0,0-.4-.7,11.2,11.2,0,0,0-1.7-2l-.6-.5-.6-.6a33.5,33.5,0,0,0-8-4.1,75.6,75.6,0,0,1,8.2-.1h.6c5.5.3,10,2.1,13,8.4l.3.7.6,1.5c0,.1.1.2.1.4A.4.4,0,0,1,182.6,145.8Z" fill="#e0ada6"/><path d="M183.3,159.9l.4-1.2Z"/><path d="M183.6,155.8l-.3,1.6Z" fill="#fff"/><path d="M183.3,157.4a8.8,8.8,0,0,1-.5,1.5A8.8,8.8,0,0,0,183.3,157.4Z" fill="#fff"/><path d="M182.8,158.9l-.6,1.4Z" fill="#fff"/><path d="M182.5,145.5c0-.2-.1-.3-.1-.4S182.5,145.3,182.5,145.5Z" fill="#fff"/><path d="M181.8,143.6l.6,1.5Z" fill="#fff"/><path d="M177.2,163.9l1.1-.4Z" fill="#fff"/><path d="M177,164.8h0Z"/><path d="M171.5,163.7a9.8,9.8,0,0,0,5.7.2,10.1,10.1,0,0,1-5.5-.1h-.1A.1.1,0,0,1,171.5,163.7Z" fill="#fff"/><path d="M172.2,115.5a13.6,13.6,0,0,1-4.7,14.9h-.1a8.3,8.3,0,0,1-1.5,1.1,14.8,14.8,0,0,1-5.4,2.1l-2,.4a20.5,20.5,0,0,0-8.3,2.8l-1.4.9c-4,2.9-7.5,3.4-11.9,5.6l.8.3h0a7.9,7.9,0,0,0,6.2-.6l.6-.2,1.1-.5h0l1.1-.5,1.1-.5,1.1-.4h.2c1.9-.5,8.4-1.5,9.4-.1a.4.4,0,0,1,.1.3c-11.2,5.1-24.2,8.5-36.6,8.5h-.5c-4.9,0-15.7.1-18.7-3.8h-.1c-.7-1.5-.7-4.8-.6-8v-.2c.1-3.9.2-7.6-1.2-7.9s-2.4,6-3.7,5.6c0-6.3,1.6-12.3,3.2-18.4l.3-.7a.9.9,0,0,1,.1-.5,2.4,2.4,0,0,0,.2-.8,21.7,21.7,0,0,0,.7-2.4,1.9,1.9,0,0,0,.2-.7,6.4,6.4,0,0,1,.2-.7c.1-.4.1-.8.2-1.1h0c0-.4.1-.7.1-1.1a9.2,9.2,0,0,0-.4-2.9l-.3-.7a5.4,5.4,0,0,0-.5-1.1h0a2.5,2.5,0,0,1-.4-.7l-.9-1.6c-1.5-2.4-3-4.7-3.4-7.8a8.6,8.6,0,0,1-.1-1.6c0-1.9,1.2-16.9,2.1-17.2a2.5,2.5,0,0,0,.4.7c1.5,2.9,2.4,6.5,5.1,8.5a19.2,19.2,0,0,0,4.8,2.4h.3c1.9.7,4,1.2,5.4.9h.1a3.5,3.5,0,0,0,2-1.4l.2-.2c1.2-1.4,2.2-3.4,3.5-4.5h.1l.9-.7.9-.6h.1l.8-.5a14.5,14.5,0,0,1,4.7-1.9H129c-.8,1.8-2.4,4-2.4,6,3.1-.4,3.3-3.8,5.6-3.1,0,.2,0,.5.7.8a2.2,2.2,0,0,1,.9,1h.1c.2.6.5,1,1.5,1l.9-.2c1.8-.4,3.2-2.3,4.3-4.7h0a1.4,1.4,0,0,0,.2-.6v-.2a29.1,29.1,0,0,0,1.9-8.9,3.8,3.8,0,0,0,0-1.5l.7.6h.1a27.9,27.9,0,0,1,4.2,4.9,19.1,19.1,0,0,1,2.9,5.9l.3.9c0,.2.1.3.1.5s.1.2.1.4a.4.4,0,0,0,.1.3c0,.3.1.6.1,1,.6,3.2,1,8.7-.9,9.9h0l-.6.2h-.4c1.2,1.4,2.4,2.6,3.7,3.9l1.3,1.2.6.6.6.7a20.6,20.6,0,0,1,3.5,4.2l.3.4c.6,1.4,1.6,4.4,1.5,5.9a1.2,1.2,0,0,1-.2.7.8.8,0,0,1-.8.2,3.8,3.8,0,0,1-1.3-.9c-.4.4-.1.5.2.9s-2.6-.9-3.7-1a14.7,14.7,0,0,0-5.5.8,31.8,31.8,0,0,0-6.3,2.5l-1,.6-3.1,1.6-2,1.1-1,.6a23.7,23.7,0,0,0-3.9,3,12.4,12.4,0,0,0-3.4,5.2,1.9,1.9,0,0,0,1-.3c1.4-1,2.4-3.9,3.8-5.2l.7-.6c1.1-.9,2.4-1.7,3.6-2.5l1.1-.6.7-.4,1.4-.7c5.2-2.9,11-5.1,16.8-3.2-.1.8-1.7,1.9-2.7,3.2s-.2.2-.3.4a2.3,2.3,0,0,0-.7,1.9v.6h0a2.1,2.1,0,0,0,1,2h.1c.8.6,2.1.7,3.6,1.1l.5.2h.3l1.1.5h0a15.9,15.9,0,0,0,3,1.4h2l1.1-.4a3.2,3.2,0,0,0,.9-.8.1.1,0,0,0,.1-.1c1.3-1.6,2.5-6.2,3.4-6.6h.1l.2.3c.1.3.3.7.4,1.1ZM151.8,99a3.5,3.5,0,0,0-.5-.8l-.6-.5h-.9a4.7,4.7,0,0,0-2.6.2h-.1l-1.5.7a2,2,0,0,0-.8.4l-.8.5a12,12,0,0,0-2.1,1.7l-.6.6-.3.4-.5.6h0a3.9,3.9,0,0,0-.7,3.8,2.1,2.1,0,0,0,.4.6c1.4-3.2,3.1-6,5.7-7.4l.7-.3A8.2,8.2,0,0,1,151.8,99Zm-4.2-12.9V83.7a53.4,53.4,0,0,0-1.8-9.6c0-.2-.1-.3-.2-.5s-.1-.2-.1-.4l-.2-.3a1.8,1.8,0,0,0-.5-.7c0-.1,0-.1-.1-.1a1,1,0,0,0-1-.3h0c-.2.7-3.2,10.4-4.4,11.7a.2.2,0,0,1-.3,0l.2.2h.1c1,.6,4.3,2,5.6,2.6l.5.2h.5c.9.2,1.4.2,1.5-.2S147.5,86.3,147.6,86.1Zm-18.2,22.6c.4-2.1-4.8-3.9-9.3-3.4l-1.4.2h-.6l-.4.2-.5.2h-.1l-1,.6-.8.6-.5.7a5.4,5.4,0,0,0-.8,3.5l1.2-1.1c1.3-1.3,2.1-2.8,4-3.7l1.1-.4a7.9,7.9,0,0,1,3.4-.1l.9.2,1.4.6h0l.8.4a22,22,0,0,1,2.5,1.7A.4.4,0,0,0,129.4,108.7ZM108.9,95.1l.6-.4-.4-.3c-1.7-1.6-3.8-2.2-5.4-4.2a19.2,19.2,0,0,0-1.8-2.9,2.1,2.1,0,0,0-1-.9h-.5a.9.9,0,0,0-.5.3l-.2.3c0,.1-.1.2-.1.3-.7,1.8.2,6,1.2,9.4h0l.3.8h0c.1.4.3.8.4,1.2h0a6.4,6.4,0,0,0,.2.7l.5,1.5a.3.3,0,0,1,.1.2v.4a18.3,18.3,0,0,1,1.5-2.5l.7-.8a12.9,12.9,0,0,1,1.7-1.6l.9-.7.6-.4Z" fill="#e6e7e8"/><path d="M171.5,163.7a.1.1,0,0,0,.1.1l-1.2-.6c0,.1.1.1.2.1Z" fill="#fff"/><path d="M171.5,163.7l-.9-.4Z" fill="#fff"/><path d="M170.6,163.3c-.1,0-.2,0-.2-.1a4.9,4.9,0,0,1-1.5-1A6.2,6.2,0,0,0,170.6,163.3Z" fill="#fff"/><path d="M171.5,114c-.9.4-2.1,5-3.4,6.6C169.7,118.6,170.2,114.3,171.5,114Z" fill="#fff"/><path d="M169.4,112.2h-.2c-.8.2-2.2.3-2.3,1.4h0a2,2,0,0,0,.2,1.5h.1c.4.9.9,1.6,1.1,2.1s.1.3,0,.4a2.9,2.9,0,0,1-2.5,3.1H164l-.5-.2a5.5,5.5,0,0,1-2.1-1.2c-.2-.1-.3-.3-.4-.4,5.8-3.7-2.9-5.4-2.5-1.3,1.7-1.3,1.4-1.9,3.7-1-2.6,3.4-8.8,1.8-6.1-3S167.9,106.4,169.4,112.2Z" fill="#231f20"/><path d="M169.1,114c.3.7.4,1.3.1,1.6h-1.1l-.9-.4h-.1a13.3,13.3,0,0,0,1.4-1.9Z" fill="#231f20"/><path d="M168.3,139.3l.6.5Z" fill="#fff"/><path d="M168.3,115.7h0Z" fill="#fff"/><path d="M168.1,161.4l.4.4Z" fill="#fff"/><path d="M168.1,115.7h0Z" fill="#fff"/><path d="M167.7,138.7l.6.6Z" fill="#fff"/><path d="M167.2,115.2h-.1C167.1,115.2,167.1,115.2,167.2,115.2Z" fill="#fff"/><path d="M167.2,115.2c-.1,0-.1,0-.1-.1h.1Z" fill="#fff"/><path d="M167.1,115.1h0a2,2,0,0,1-.2-1.5v.2A5.1,5.1,0,0,0,167.1,115.1Z" fill="#fff"/><path d="M167.1,162.9h0Z"/><path d="M166.9,162.9l-.4.3Z"/><path d="M165.5,108.3h.2a5.3,5.3,0,0,1-2.6-.3,1.6,1.6,0,0,1-.3-1.6C163.2,107.7,162.8,107.3,165.5,108.3Z"/><path d="M165.6,161.1a7,7,0,0,1-1.1,3.7h0c-2.9,3.7-9.8,6.3-13,7.7a62.1,62.1,0,0,1-6.1,2h-.1a64.5,64.5,0,0,1-9.7,1.6h-3.5a96.7,96.7,0,0,1-17.8-1,13.4,13.4,0,0,1-3.7-1.1c-1.1-.5-2.1-1.2-3.3-1.7s-6.2-.6-9.1-1.5A144.6,144.6,0,0,1,83,164.5c-1.3-.7-3.6-2.2-6-3.8l-.5-.3c-3.3-2.2-6.8-4.4-7.8-4h0l-.6-.2c.1-.1.1-.4.1-.6v-.4l-2.5.6c-3,.5-5.9.6-8.5-.5l-1.4-.8-1.4-1.1-.2-.2-.9-1.1a10.7,10.7,0,0,1-1.6-2.9c-.7-2.5.3-4.4,2.1-6.2l.8-.8.5-.4.8-.6.7-.6a7.9,7.9,0,0,1-1.2-1.5c-3-4.9,4.3-8.3,9-6h0l1,.6c1.8,1.3,1.7,3.8,3.6,3.1.2,0,.6-.4.9-.8h0a21.1,21.1,0,0,1,2.5-2.6h0l1.1-.5a7,7,0,0,1,2.9-.2,4.3,4.3,0,0,1,3.7,3.1v.2a13.7,13.7,0,0,1-.2,4.9c-.5,4.6.2,4.2,4,6.1l.6.4,1.3.7.5.2.2.2h.5a.1.1,0,0,1,.1.1h.3l.3.2h.4c5.8,3.1,16.3,8.5,17.9,7.8h.2a1.5,1.5,0,0,0-1.2-1.3c5.8-1.2,12.8.8,18.7.9s12.1-1.1,18-1.8a35,35,0,0,0,.5,4.1c0,.2.1.4.1.6a6,6,0,0,0,1.1,2.1v.2c.8.9,2,1.2,3.8.5l.8-.5.6-.3h0c2.5-2.1,1.5-5.9.2-8.6l-.3-.7,1.1-.4.4-.2h.4c4-1.8,11.7-5.2,12.8-4.2s.1.3.2.4h0c.4,1.7-.1,5.4,0,6.4v.2a1.9,1.9,0,0,0,.1.8c.1,1.4,1,3,1.6,4.6A9,9,0,0,1,165.6,161.1ZM77,141.5a3.5,3.5,0,0,0-1.3-3l-.5-.3c-1.6-.9-3.7-.4-3.7,2.5v.5a.8.8,0,0,1,.1.4v.4c.7,1.6,2.8,1.2,4.5.1h0ZM65,151.8a3.6,3.6,0,0,0,.9-3l-.2-.5-.6-.9-.3-.2-.6-.4-.4-.2h-.5c-1.9-.4-3.4,1.2-3.8,2.8h0c-.4,1.3-.2,2.5,1.2,2.5h.4v.8h-.1l.4.5c.9.9,2.4.3,3.4-.8Zm-2-9.5a2.3,2.3,0,0,0,2-2.4v-.4a2.3,2.3,0,0,0-1.3-1.9l-.5-.2H61.7l-.7.3h0l-.2.2a2.9,2.9,0,0,0-.3,3.4h0l.3.4.4.3.4.2H63Z" fill="#e6e7e8"/><path d="M164.7,122h0Z" fill="#fff"/><path d="M166.5,163.2a14.2,14.2,0,0,0-2.8,2.7l.6-.7A10,10,0,0,1,166.5,163.2Z"/><path d="M163.6,154.1a48.4,48.4,0,0,0,1.7,5.4c-.6-1.6-1.5-3.2-1.6-4.6A1.9,1.9,0,0,1,163.6,154.1Z"/><path d="M164,120.8h0Z" fill="#fff"/><path d="M164.1,142.2c.8,1.4.6,2.8.4,4.7C164.7,145,164.9,143.5,164.1,142.2Z" fill="#fff"/><path d="M164.5,147.2c0,.3-.1.6-.1,1S164.5,147.5,164.5,147.2Z" fill="#fff"/><path d="M164.5,164.8l-.2.4c-.9.8-1.7,1.8-2.3,2.4-4,3.3-10.6,5.5-16.6,6.9a62.1,62.1,0,0,0,6.1-2C154.7,171.1,161.6,168.5,164.5,164.8Z"/><path d="M162,167.6c.6-.6,1.4-1.6,2.3-2.4l-.6.7-.4.5Z"/><path d="M163.5,120.6l.5.2Z" fill="#fff"/><path d="M163.7,141.7a1,1,0,0,1,.4.5Z" fill="#fff"/><path d="M163.6,147.5c-.1-.1-.1-.3-.2-.4s-8.8,2.4-12.8,4.2c3.9-1.7,11.7-5.2,12.6-4.5S163.5,147.2,163.6,147.5Z"/><path d="M162.6,142.2c1.6,1.7.3,1.8-.8,3-3.3,3.2-10.4,4.9-14.7,6.2a81.5,81.5,0,0,1-14.2,3.2,106.8,106.8,0,0,1-19.6.4c-7-.5-8.1-1.1-10.4-7.6a73.7,73.7,0,0,0,34.3,1.7,105.7,105.7,0,0,0,19-5.5C158,142.9,160.9,140.4,162.6,142.2Z" fill="#be1e2d"/><path d="M162.3,140.4l-.7-.4Z" fill="#fff"/><path d="M162.1,104.8c.1,0,.1.1.1.2-.9-1.5-1.7-2.9-2.7-4.3A17.7,17.7,0,0,1,162.1,104.8Z"/><path d="M163.3,166.4l-1.4,1.4a26,26,0,0,1-3.8,2.7,16.1,16.1,0,0,0,3-2.1l.9-.8Z"/><path d="M161.4,119.4a5.5,5.5,0,0,0,2.1,1.2A4.8,4.8,0,0,1,161.4,119.4Z" fill="#fff"/><path d="M162,167.6l-.9.8a16.1,16.1,0,0,1-3,2.1l-1,.6-2,1.1-1,.5a5.9,5.9,0,0,1-1.4.6l-2.7,1.1-4.4,1.3c-12.5,3.1-27,2.5-38.5-1.7-3-1.1-5.9-1.9-8.8-2.8h0l1,.3c2.9.7,5.9.6,8.6,1.6l2.7,1.1a10,10,0,0,0,2.6.9c6.2,1.4,12.7,1.4,18.9,1.2h3.5a46.8,46.8,0,0,0,9.7-1.6h.1C151.4,173.1,158,170.9,162,167.6Z"/><path d="M161,108.5c.1-1.5-.9-4.5-1.5-5.9A16.1,16.1,0,0,1,161,108.5Z" fill="#fff"/><path d="M155.2,108.4c1.1.1,2.6,1.1,3.7,1-2.5.3-5.2-1.2-8.1-.5a31.4,31.4,0,0,0-7.4,2.8,31.8,31.8,0,0,1,6.3-2.5A14.7,14.7,0,0,1,155.2,108.4Z" fill="#fff"/><path d="M161.6,140a9.7,9.7,0,0,0-3.3-1A9.7,9.7,0,0,1,161.6,140Z" fill="#fff"/><path d="M157.1,171.1l1-.6Z"/><path d="M159.1,119.7c-1.5-.4-2.8-.5-3.6-1.1A22.7,22.7,0,0,0,159.1,119.7Z" fill="#fff"/><path d="M155.7,98l-.6-.7Z" fill="#fff"/><path d="M155.1,138.7h.4c-1.8.2-4.6,1.1-6.2,1C150.9,139.8,153.7,138.8,155.1,138.7Z" fill="#fff"/><path d="M154.5,96.7l.6.6Z" fill="#fff"/><path d="M155.1,113.9a1.6,1.6,0,0,0-.5,1,4.4,4.4,0,0,0-.2,1.5v-.6A2.3,2.3,0,0,1,155.1,113.9Z" fill="#fff"/><path d="M154,93.9h0c-.8-.5-1.9-1.1-2.1-1.7s.6-3.3.9-4.8c-.2,1.2-.8,2.8-.6,3.7S152.8,92.3,154,93.9Z"/><path d="M153.2,95.5l1.3,1.2Z" fill="#fff"/><path d="M152.8,83.9a3.4,3.4,0,0,0-.1-1A3.4,3.4,0,0,1,152.8,83.9Z"/><path d="M152.7,82.9c0-.3-.1-.6-.1-1S152.7,82.6,152.7,82.9Z"/><path d="M152.6,81.9c-.1-.3-.1-.6-.2-.9S152.5,81.6,152.6,81.9Z"/><path d="M151.3,98.2a3.5,3.5,0,0,1,.5.8,8.2,8.2,0,0,0-5.2.2l-.7.3c-2.6,1.4-4.3,4.2-5.7,7.4a2.1,2.1,0,0,1-.4-.6,3.9,3.9,0,0,1,.7-3.8h0l.5-.6.3-.4.6-.6a12,12,0,0,1,2.1-1.7l.8-.5a2,2,0,0,1,.8-.4l1.5-.7h.1a7.8,7.8,0,0,1,2.6-.2h.9Z"/><path d="M151.4,81.4c.6,3.3,1.1,8.7-.9,9.9C152.4,90.1,152,84.6,151.4,81.4Z" fill="#fff"/><path d="M150,174.4l2.7-1.1Z"/><path d="M151.3,80.4a.4.4,0,0,1-.1-.3A.4.4,0,0,0,151.3,80.4Z" fill="#fff"/><path d="M151,79.2l-.3-.9Z" fill="#fff"/><path d="M150.7,97.7l.6.5Z"/><path d="M150.3,97.6h0Z"/><path d="M149.9,91.5l.6-.2Z" fill="#fff"/><path d="M149.8,151.6l.4-.2Z"/><path d="M149.8,97.4a7.8,7.8,0,0,0-2.6.2A4.7,4.7,0,0,1,149.8,97.4Z"/><path d="M149,152.7c1.3,2.7,2.3,6.5-.2,8.6C151.3,159.2,150.2,155.3,149,152.7Z"/><path d="M149,139.7h0Z" fill="#fff"/><path d="M148.8,139.6h0Z" fill="#fff"/><path d="M148.8,161.4l-.6.3Z"/><path d="M152.4,81a29,29,0,0,0-4.5-9.8l-.4-.6A26.8,26.8,0,0,1,152.4,81Z"/><path d="M147.8,72.4a20.2,20.2,0,0,1,2.9,5.9A19.1,19.1,0,0,0,147.8,72.4Z" fill="#fff"/><path d="M147.6,153.1c3.7,1.6,1.8,9.6-2.6,6.1-1-.8-2.4-4.2-1.3-5.4s1.8-.4,3.4.4A11.7,11.7,0,0,0,147.6,153.1Z" fill="#fff200"/><path d="M147.6,84.8v0Z"/><path d="M147.6,84.8v1.3c-.1.2-.1.4-.2.5s-.6.4-1.5.2h-.5l-.5-.2c-1-.5-2.4-1.7-3.2-2.1s-1.8-.2-2.4-.5h-.1l-.2-.2a.2.2,0,0,0,.3,0c1.2-1.2,4.3-11,4.4-11.7h0a1,1,0,0,1,1,.3c.1,0,.1,0,.1.1a1.8,1.8,0,0,1,.5.7l.2.3c0,.2.1.3.1.4s.2.3.2.5a55,55,0,0,1,1.8,9.6v1.1Zm-1.2,1.3c.9-4-.8-7.9-1.9-11.8a21.9,21.9,0,0,1-4.3,9.1C142.7,83.8,144.1,85.1,146.4,86.1Z"/><path d="M147.8,141.3l-1.1.5Z" fill="#fff"/><path d="M144.5,74.3c1.1,3.9,2.8,7.8,1.9,11.8-2.3-1-3.7-2.3-6.2-2.7A21.9,21.9,0,0,0,144.5,74.3Z" fill="#e0ada6"/><path d="M146.7,141.8l-1.1.5Z" fill="#fff"/><path d="M147.1,97.6l-1.5.7Z"/><path d="M147.6,83.7a55,55,0,0,0-1.8-9.6A53.4,53.4,0,0,1,147.6,83.7Z"/><path d="M145.8,74.1c0-.2-.1-.3-.2-.5S145.8,73.9,145.8,74.1Z"/><path d="M145.5,73.2l-.2-.3Z"/><path d="M145.6,142.3l-1.1.5Z" fill="#fff"/><path d="M144.8,98.7l-.8.5Z"/><path d="M143.5,161.5v0Z"/><path d="M143.5,67.4h0Z" fill="#fff"/><path d="M142.7,65.4H142c-.9.3-.3,4.9-.6,6.3a27.9,27.9,0,0,1-1.2,4.1,24.3,24.3,0,0,0,.9-3c.3-1.1.1-7.1.4-7.4A.9.9,0,0,1,142.7,65.4Z"/><path d="M142.3,158.8c0,.2.1.4.1.6S142.3,159,142.3,158.8Z"/><path d="M142.8,68.3a29.1,29.1,0,0,1-1.9,8.9A29.7,29.7,0,0,0,142.8,68.3Z" fill="#fff"/><path d="M143.9,143a7.9,7.9,0,0,1-6.2.6C139.8,144.4,141.8,143.9,143.9,143Z" fill="#fff"/><path d="M139.2,83.8h0Z"/><path d="M137.3,115l2-1.1Z" fill="#fff"/><path d="M137.2,80.5a7.1,7.1,0,0,0,1.6-1.8,5.6,5.6,0,0,1-2.8,2.7Z"/><path d="M136.9,143.3l.8.3Z" fill="#fff"/><path d="M136.3,82.8l-.9.2Z" fill="#fff"/><path d="M136.3,115.6a28.8,28.8,0,0,0-3.9,3A23.7,23.7,0,0,1,136.3,115.6Z" fill="#fff"/><path d="M134.4,80.5l.8.9a2.6,2.6,0,0,1-1-.4c-.1-.1-.1-.4-.1-.8Z"/><path d="M133.2,118.9l.6-.6c-1.4,1.3-2.4,4.2-3.8,5.2C131.2,122.6,132,120,133.2,118.9Z" fill="#fff"/><path d="M133.8,82a2.2,2.2,0,0,0-.9-1c-.7-.3-.7-.6-.7-.8l.5.2C133.5,80.7,133.6,81.4,133.8,82Z" fill="#fff"/><path d="M107.1,174c11.5,4.2,26,4.8,38.5,1.7-12.1,3-26.7,2.8-37.6-1.3-4.7-1.8-9.4-3-14.1-4.6l4.4,1.4C101.2,172.1,104.1,172.9,107.1,174Z"/><path d="M120.1,105.3c4.5-.5,9.7,1.4,9.3,3.4a.4.4,0,0,1-.1.3,22,22,0,0,0-2.5-1.7l-.8-.4h0l-1.4-.6-.9-.2a7.9,7.9,0,0,0-3.4.1l-1.1.4c-2,.9-2.7,2.4-4,3.7l-1.2,1.1a5.4,5.4,0,0,1,.8-3.5l.5-.7.8-.6,1-.6h.1l.5-.2.4-.2h.6Z"/><path d="M128.5,77.4h0Z" fill="#fff"/><path d="M123.1,79.5l-.8.5Z" fill="#fff"/><path d="M122.2,80.1l-.9.6Z" fill="#fff"/><path d="M121.5,149.5c-4.8,0-15.2.2-18.5-3.3a3.3,3.3,0,0,1-.3-.6h.1C105.8,149.6,116.6,149.5,121.5,149.5Z" fill="#fff"/><path d="M121.3,80.7l-.9.7Z" fill="#fff"/><path d="M119.6,82.1l.7-.6c-1.3,1.1-2.3,3.1-3.5,4.5C117.8,84.8,118.5,83.1,119.6,82.1Z" fill="#fff"/><path d="M118.7,105.5h0Z"/><path d="M117.7,105.8l-.5.2Z"/><path d="M119.2,106.6c-1.9.9-2.7,2.4-4,3.7C116.5,109,117.2,107.5,119.2,106.6Z"/><path d="M117.1,106l-1,.6Z"/><path d="M115.3,107.2l-.5.7Z"/><path d="M114,111.4l1.2-1.1Z"/><path d="M114.1,86a15.5,15.5,0,0,0,1.8-1.5A6.6,6.6,0,0,1,114.1,86Z"/><path d="M109.1,86.7c2,.7,4.1,1.2,5.4.9C113.1,87.9,111,87.4,109.1,86.7Z" fill="#fff"/><path d="M111.6,86.2h-.7a17.9,17.9,0,0,1-6.4-2.4c1.3.9,3.7,1.5,5.2,2Z"/><path d="M107.3,172.5c1.2.5,2.2,1.2,3.3,1.7l-2.7-1.1c-2.7-1-5.7-.9-8.6-1.6l-1-.3c-4.9-1.5-10-4.3-14.7-6.3l-.6-.4A144.6,144.6,0,0,0,98.2,171C101.1,171.9,104.6,171.4,107.3,172.5Z"/><path d="M109.5,94.7l-.6.4-1.1.7-.6.4-.9.7a12.9,12.9,0,0,0-1.7,1.6l-.7.8a18.3,18.3,0,0,0-1.5,2.5v-.2c-.1,0-.1-.1-.1-.2a.3.3,0,0,0-.1-.2l-.5-1.5a6.4,6.4,0,0,1-.2-.7h0c-.1-.4-.3-.8-.4-1.2h0l-.3-.8h0c-1-3.4-1.9-7.5-1.2-9.4,0-.1.1-.2.1-.3l.2-.3a.9.9,0,0,1,.5-.3h.5a2.1,2.1,0,0,1,1,.9,23,23,0,0,1,1.6,2.7l.2.2.3.5c1.5,1.7,3.5,2.3,5.1,3.7Zm-6.9,4.4,4.8-4.4a10,10,0,0,1-3.6-2.8l-1.2-1.4-1.7-2.1C100.7,92.1,100.9,95.8,102.6,99.1Z"/><path d="M107.4,94.7l-4.8,4.4c-1.7-3.3-1.9-7-1.7-10.7l1.7,2.1,1.2,1.4A10,10,0,0,0,107.4,94.7Z" fill="#e0ada6"/><path d="M109.1,94.4c-1.6-1.4-3.6-2-5.1-3.7l-.3-.5C105.3,92.2,107.4,92.8,109.1,94.4Z"/><path d="M106.1,157.1h0Z"/><path d="M88.2,149.3c5.8,3,16.3,8.4,17.9,7.8C104.5,157.8,94,152.4,88.2,149.3Z"/><path d="M102.6,90.5l1.2,1.4Z" fill="#fff"/><path d="M102.3,101.4c0,.1,0,.2.1.2Z"/><path d="M102.2,101.2a.3.3,0,0,1,.1.2A.3.3,0,0,0,102.2,101.2Z"/><path d="M102.1,137.4c0-3.9.1-7.6-1.2-7.9C102.3,129.8,102.2,133.5,102.1,137.4Z" fill="#fff"/><path d="M101.2,104a5.4,5.4,0,0,1,.5,1.1A5.4,5.4,0,0,0,101.2,104Z" fill="#fff"/><path d="M101.2,78.6l.6.9Z"/><path d="M101.2,103.9a2.5,2.5,0,0,1-.4-.7A2.5,2.5,0,0,0,101.2,103.9Z" fill="#fff"/><path d="M100.9,86.4h0Z"/><path d="M96.5,93.8c.4,3.1,1.9,5.4,3.4,7.8C98.4,99.2,96.9,97,96.5,93.8Z" fill="#fff"/><path d="M98.3,171.2h0l-4.4-1.4a49.2,49.2,0,0,1-6-2.3,136.9,136.9,0,0,1-19.3-11h.1c.9-.3,4.4,1.8,7.8,4l.5.3a61.3,61.3,0,0,0,5.6,3.6l.4.2.6.4C88.3,166.9,93.4,169.7,98.3,171.2Z"/><path d="M101.2,78.6a36.8,36.8,0,0,0-3.4-5.8A36.8,36.8,0,0,1,101.2,78.6Z"/><path d="M97.4,72.5h0Z"/><path d="M97.3,72.6v0Z"/><path d="M97.2,72.8c-.9,1.5-.9,7.7-1.1,10.9C96.3,80.5,96.1,74.3,97.2,72.8Z"/><path d="M87.5,148.9Z"/><path d="M87.5,148.9Z"/><path d="M87.2,148.8a.1.1,0,0,0-.1-.1h-.2Z" fill="#fff"/><path d="M86.9,148.6h0Z"/><path d="M86.6,148.5l-.2-.2-.5-.2-1.3-.7L84,147c-4.3-2.2-4.3-2.1-3.7-7.1a10.1,10.1,0,0,0-.1-3.9v-.2a4.1,4.1,0,0,0-3.7-3.1,5.7,5.7,0,0,0-2.9.2l-1.1.5h0l-.7.4a10.6,10.6,0,0,0-1.8,2.2h0l-.6.4c-2.4.7-1.3-.8-3.9-2.7l-1-.6h0c-4.7-2.3-12.1,1.1-9,6a7.9,7.9,0,0,0,1.2,1.5l-.7.6-.8.6-.5.4-.8.8c-1.8,1.8-2.8,3.7-2.1,6.2a10.7,10.7,0,0,0,1.6,2.9l.9,1.1.2.2,1.4,1.1,1.4.8c2.6,1.1,5.5,1,8.5.5l2.5-.6v.4c0,1.3-1.8,1.7-4.1,1.6h-.7c-3.5-.3-7.8-1.5-8.7-2.1a10.3,10.3,0,0,1-3.2-3.8l-.3-.7a9.2,9.2,0,0,1,0-5.7,10.4,10.4,0,0,0,.4-1,2.5,2.5,0,0,1,.4-.7c1.4-3,1.8-2.2,2.1-5.6a1.7,1.7,0,0,0,.1-.7,6.6,6.6,0,0,1,.7-3v-.2a7.5,7.5,0,0,1,1.6-1.3l.4-.2.4-.2a7.7,7.7,0,0,1,4.2-.5h.6a11.2,11.2,0,0,1,5.3,2.7l.8.8c2.5-2.9,7.3-5.1,10.8-2.6l.7.5c2.4,2.2,1.3,4.6,1,7.2a5.7,5.7,0,0,0,0,2.6,6.5,6.5,0,0,0,.9,1.9l.5.5h0A23.9,23.9,0,0,0,86.6,148.5Z"/><path d="M85.9,148.1l.5.2Z"/><path d="M80.2,136a10.1,10.1,0,0,1,.1,3.9c-.6,5-.6,4.9,3.7,7.1-3.8-1.9-4.5-1.5-4-6.1A13.7,13.7,0,0,0,80.2,136Z"/><path d="M75.7,138.5a3.5,3.5,0,0,1,1.3,3l-.8.6h0c-1.7,1.1-3.7,1.5-4.5-.1v-.4a.8.8,0,0,0-.1-.4v-.5c0-2.9,2.1-3.4,3.7-2.5Zm0,2.7c.3-1.4,0-2-.5-2.1s-2.1.5-2.8,1.8S75.5,144,75.7,141.2Z"/><path d="M76.4,132.7a7,7,0,0,0-2.9.2A5.7,5.7,0,0,1,76.4,132.7Z"/><path d="M75.2,139.1c.5.1.8.7.5,2.1C75.8,140,75.6,139.4,75.2,139.1Z" fill="#fff"/><path d="M75.2,139.1c.4.3.6.9.5,2.1s-3-.1-3.3-.3S74.3,138.9,75.2,139.1Z" fill="#231f20"/><path d="M73.5,132.9l-1.1.5Z"/><path d="M71.7,133.8l.7-.4a21.1,21.1,0,0,0-2.5,2.6A10.6,10.6,0,0,1,71.7,133.8Z"/><path d="M71.6,141.6v0Z"/><path d="M71.5,140.7v0Z"/><path d="M68.7,156.4c1-.4,4.5,1.8,7.8,4C73.1,158.2,69.6,156.1,68.7,156.4Z"/><path d="M68.7,156.4h0Z"/><path d="M65.9,148.8a3.6,3.6,0,0,1-.9,3l-.3.3c-1,1.1-2.5,1.6-3.4.8l-.4-.5h.5c1.9.2,4.2-.7,3.4-2.9-.1-.1-.1-.3-.2-.4h0l-.2-.4-.4-.5-.4-.3a1.4,1.4,0,0,0-2,.3h-.1c0,.1-.1.1-.1.2h0a2.7,2.7,0,0,0-.5,2.9l.2.3h-.4c-1.2,0-1.5-1.2-1.2-2.5h0c.5-1.5,2-3.1,3.8-2.8h.5l.4.2.6.4.3.2.6.9Z"/><path d="M65.7,148.3l-.6-.9Z"/><path d="M65,139.9a2.3,2.3,0,0,1-2,2.4A2.4,2.4,0,0,0,65,139.9Z"/><path d="M65,139.7v0Z"/><path d="M65,139.7v.2a2.4,2.4,0,0,1-2,2.4H61.6l-.4-.2-.4-.3-.3-.4h0a3,3,0,0,1,.3-3.4l.2-.2h0l.7-.3h1.4l.5.2a2.8,2.8,0,0,1,1.3,1.9Zm-2.4,1.6c.8,0,1.4-.8.2-2.5,0-.1-.1-.2-.2-.4l-1.5,1.3c0,.1.1.2.1.3s.9,1.3,1.4,1.3Z" fill="#231f20"/><path d="M64.8,149.5c.6,2-1.5,3.1-3.4,2.9H61v-.8l-.2-.3a2.9,2.9,0,0,1,.5-2.9h0v-.2h.1a1.7,1.7,0,0,1,2-.3l.4.3.4.5.2.4h0C64.7,149.2,64.7,149.4,64.8,149.5Z" fill="#231f20"/><path d="M64,148.2l-.4-.3Z"/><path d="M63.4,157.3h0Z"/><path d="M63.7,146.6h0Z"/><path d="M63.5,146.5h0Z"/><path d="M63.3,146.4c-1.8-.3-3.3,1.3-3.8,2.8C59.9,147.6,61.4,146,63.3,146.4Z"/><path d="M63.6,147.9a1.7,1.7,0,0,0-2,.3A1.4,1.4,0,0,1,63.6,147.9Z"/><path d="M62.8,138.8c1.1,1.6.6,2.5-.2,2.5h0a2,2,0,0,1-1.4-1.3c0-.1-.1-.2-.1-.3l1.5-1.3C62.7,138.6,62.8,138.7,62.8,138.8Z" fill="#231f20"/><path d="M63.1,137.4h0Z"/><path d="M57.2,155.4c2.6,1.1,5.5,1,8.5.5C62.7,156.4,59.8,156.5,57.2,155.4Z"/><path d="M64.7,152.1c-1,1.1-2.5,1.7-3.4.8C62.2,153.7,63.7,153.2,64.7,152.1Z"/><path d="M62.1,131.7h0Z"/><path d="M61.2,140a2,2,0,0,0,1.4,1.3C62.1,141.3,61.5,140.9,61.2,140Z" fill="#fff"/><path d="M61.6,131.6a7.7,7.7,0,0,0-4.2.5l-.4.2A6.8,6.8,0,0,1,61.6,131.6Z"/><path d="M61,137.8l-.2.2Z"/><path d="M60.9,151.7h0Z"/><path d="M60.5,141.4l.3.4Z"/><path d="M60.8,138a3,3,0,0,0-.3,3.4A2.9,2.9,0,0,1,60.8,138Z"/><path d="M55.8,154.6l1.4.8Z"/><path d="M63.4,157.3c-3.2-.2-6.9-1-7.9-1.6a9.7,9.7,0,0,1-4-4.3,10.3,10.3,0,0,0,3.2,3.8C55.6,155.8,59.9,157,63.4,157.3Z"/><path d="M54.9,134a6.6,6.6,0,0,0-.7,3A6.3,6.3,0,0,1,54.9,134Z"/><path d="M54.2,153.3l.2.2Z"/></svg>