<svg id="Layer_1" data-name="Layer 1" xmlns="http://www.w3.org/2000/svg" width="256" height="256" viewBox="0 0 256 256"><title>Artboard 1</title><path d="M176.4,121.1c6.1,2.1,14.5,6.7,18.8,11.7-3.9-1.7-7.3-3.3-11.6-3.3-2.8-.1-6.8,1.9-9.3,1.5s-4.7-4.7-8-5.7-5.5.5-6.5-.6l-.3-.4c-.3-1.1-.6-2.3-1-3.5h0c.6-1.6,2.8-2.3,5-2.2A43.4,43.4,0,0,1,176.4,121.1Z" fill="#be1e2d"/><path d="M179.1,138c-.9,0-5.6,1.3-6.3.6s.9-3.3,1-3.6c.7-2.2-.4-2,2-3.3s8.6-1.3,11.6-.7c5.9,1.2,14.4,5.7,13.1,13.2-.2,3.9-1.1,2.2-3.4.5a34.1,34.1,0,0,0-7.9-5A26.2,26.2,0,0,0,179.1,138Z" fill="#fff"/><path d="M167.1,185.7c-.7-.2-2.6-9.9-3.2-11.3-1.4-3.3-2.6-6.7-4.1-10s-4.1-5.6-3.5-7.6,6.6-5.5,8.2-7,4.9-7.3,8-9.4,8.3-1.6,11.5-1.1,17.1,6.1,15.9,9.9c-2.2,7.9-8,15.1-13.4,21a71.3,71.3,0,0,1-9.9,9.1C175.4,180.2,168.4,186.2,167.1,185.7Z" fill="#be1e2d"/><path d="M158.5,120.8c.4,1.2.7,2.4,1,3.5C158.4,122.9,158.1,121.7,158.5,120.8Z"/><path d="M156.9,190.6c1.2-1.2-1.4-7.4-1.9-8.9-1.5-4.2-3.8-7.9-5.7-11.9s-3.1-5.2,0-8,4.5-3.4,6.7-2.2,3.8,7.6,4.8,10.3,3.3,6.7,4.2,10.4,1.8,5.6-1.8,8.1c-.9.6-4.1,2.8-6.1,3.3l-.3-1.3Z" fill="#fff"/><path d="M156.8,190.4l.3,1.3c-.8.2-1.4.2-1.6-.4-4.8,4.4-11.6,7.1-17.4,10s-13,5.5-20.1,6.1-8.3.4-8.7-6.7,1.8-12.8,4.9-18.6,4.4-5.9,9.1-6.8c7-1.4,12.5-5.8,19-8.5,3.3-1.4,3.6-1.4,5.5,1.9s3.5,6.6,5,10C153.3,180,156.3,188.8,156.8,190.4Z" fill="#be1e2d"/><path d="M147.2,43.2h0Z"/><path d="M68.2,105C67.9,104.8,86,90.3,89,89.5s3.5,0,5.1-2c.4-.4,1.3-4,1.9-4.9a24.1,24.1,0,0,1,3-4.8c3.2-3.7,7.5-5.6,12-7.3s9.2-1.1,13.1-3.1,8.1-5.9,11.5-8.9c1.6-1.4,9-10.8,9.8-10.6,2.4.6-.1,30.1-.5,33.5-.2,1.8-1,4.2-.7,6s1.9,3.3,3.2,5.5c3.4,5.5,4.9,12.3,7.4,18.1,1,2.5,2.5,6,3.7,9.8h0c-.4.9-.1,2.1,1,3.5,1.8,6.9,2.5,14.1-1.2,18s-9.7,6.7-14.5,9.9-8.8,5.9-13.7,8-26.2,10.9-27.3,3.8c-.3-1.9,1.8-5.1,2.3-7s.8-5.6,1.1-8.5c.6-4.6,2-9,2.6-13.6.3-1.8,1.2-6.7.4-8.1s1.2-.5-.2-1.2-5,1.3-5.7,1.4c-5,1.3-12.4,3-17.6,1.2-2.5-.9-2-3.1-3.9-3.4l-4.3,2c-2.2.9-3.9,1.6-6.3,1.1-4.8-1-7.6-5.9-11.2-8.7s-7-7.5-3.2-11.3c2.2-2.2,9.8-.5,10.6-1.5s-.6-1-2.2-1l2.8-.6A.2.2,0,0,0,68.2,105Zm73.1-46.4c.2-2.9-5.5,4.4-6.6,5.5s-8.5,6.7-8.3,7c1.2,2.3,6.2-.4,7.9,1.2s.9,6.7,2.9,7.3S140.7,60.3,141.3,58.6ZM110.6,93.1c4.1-.3,7.8-6.8,2.4-9.4S103.8,93.2,110.6,93.1Z" fill="#e6e7e8"/><path d="M139.7,60.8c-.2,1.7-.1,15.3-2.7,15.3s-1.2-5-2.9-5.8-3.9,1.8-5.1.4C132.7,67.6,135.9,63.9,139.7,60.8Z" fill="#e0ada6"/><path d="M129,70.7c1.2,1.4,3.8-1,5.1-.4s1.4,5.7,2.9,5.8,2.5-13.6,2.7-15.3C135.9,63.9,132.7,67.6,129,70.7Zm5.3,1.6c-1.7-1.6-6.7,1.1-7.9-1.2-.2-.3,7.5-6.3,8.3-7s6.8-8.4,6.6-5.5-2.6,21.4-4.1,21S135.7,73.6,134.3,72.3Z"/><path d="M117.2,176.8c-6.5,4.6-9.2,16.8-8.8,24.1.2,3,2.2,6.3-.6,7.3-1.1.4-6.4-.5-7.4-1.1-5.8-3.6-1.3-17.5,1-22.1s3.3-5.1,7.2-6.1C110.3,178.5,115.5,176.2,117.2,176.8Z" fill="#fff"/><path d="M111,85.5c3.5.5,1.5,4.2-1.2,4.1S108.2,85.1,111,85.5Z" fill="#fff"/><path d="M107.1,49.6c4.2.2,10.4,7.4,12.5,10.7.4.6,2.8,5.7,3.5,5.7l.3.7c-3,1.4-6.4.8-9.6,1.7-.7.2-6,2.8-6.6,2s1.9-7.8,2-8.9A20.5,20.5,0,0,0,107.1,49.6Z" fill="#e6e7e8"/><path d="M110.5,91.7a7.3,7.3,0,0,0-2.6-.9C108.7,92.1,109.3,92.3,110.5,91.7Zm.5-6.2c-2.8-.4-3.3,4.1-1.2,4.1S114.5,86,111,85.5Zm-.4,7.6c-6.8.1-4.4-12.7,2.4-9.4S114.7,92.8,110.6,93.1Z"/><path d="M103.4,180c.1,1.5-3.7,6.1-4.3,7.8a42.9,42.9,0,0,0-2,9.3c-.2,1.7.9,8.1-.3,8.7s-14.5-5.4-17.1-6.9c-8.4-5-14-16.3-11.5-25.4,1.4-4.9,2.8-12.9,8.7-13.4,3.5-.3,11.4,1.6,11.8,5.7-1.5,6.5,2.9,11.3,8.8,12.5C99.5,178.7,103.4,178,103.4,180Z" fill="#be1e2d"/><path d="M103.9,146.8c-.7.6-1.6,1.1-2.4,1.7A7.7,7.7,0,0,1,103.9,146.8Z"/><path d="M89.1,151.8c-.9-.4-5.7-2.8-6.6-1.3L82,150c3-2.7,6.1-5,7.3-5.9s19-11.1,18.7-8.8-1,7.6-2.4,9.7a9.4,9.4,0,0,1-1.7,1.8,7.7,7.7,0,0,0-2.4,1.7h0a21.7,21.7,0,0,0-4.4,3.2C93,155.5,93.9,154.1,89.1,151.8Z" fill="#be1e2d"/><path d="M75.6,159c-1.3-1.5,2.5-5.5,6.4-9l.5.5h-.1c-.1.4,5.5,1.7,5.9,1.9,4.9,2.3,5,2.3,3,6.7s-1,4.1-4.6,2.7c-1.9-.7-3.5-1.8-5.7-2.3S75.9,159.5,75.6,159Z" fill="#fff"/><path d="M197.1,144.7c2.3,1.7,3.2,3.4,3.4-.5,1.3-7.5-7.2-12-13.1-13.2-3-.6-8.9-.8-11.6.7s-1.3,1.1-2,3.3c-.1.3-1.2,3.3-1,3.6s5.4-.6,6.3-.6a26.2,26.2,0,0,1,10.1,1.7A34.1,34.1,0,0,1,197.1,144.7Zm-40.8,12.1c-.6,2,2.6,5.5,3.5,7.6s2.7,6.7,4.1,10c.6,1.4,2.5,11.1,3.2,11.3s8.3-5.5,9.5-6.4a71.3,71.3,0,0,0,9.9-9.1c5.4-5.9,11.2-13.1,13.4-21,1.2-3.8-13.4-9.5-15.9-9.9s-8.5-1-11.5,1.1-5.2,6.8-8,9.4S157,154.7,156.3,156.8Zm-47,43.9c.4,7.1,1.8,7.4,8.7,6.7s13.7-3,20.1-6.1,12.6-5.6,17.4-10c.2.6.8.6,1.6.4s5.2-2.7,6.1-3.3c3.6-2.5,2.9-3.5,1.8-8.1s-2.8-6.9-4.2-10.4-2.1-8.7-4.8-10.3-4.8.4-6.7,2.2-1.8,4.4,0,8,4.2,7.7,5.7,11.9c.5,1.5,3.1,7.7,1.9,8.9v-.2c-.5-1.6-3.5-10.4-4-11.7-1.5-3.4-3.2-6.8-5-10s-2.2-3.3-5.5-1.9c-6.5,2.7-12,7.1-19,8.5-4.7.9-6.7,2.3-9.1,6.8S108.8,194.1,109.3,200.7ZM101.4,185c-2.3,4.6-6.8,18.5-1,22.1,1,.6,6.3,1.5,7.4,1.1,2.8-1,.8-4.3.6-7.3-.4-7.3,2.3-19.5,8.8-24.1-1.7-.6-6.9,1.7-8.6,2.1C104.7,179.9,103.3,181.2,101.4,185ZM75.6,159c.3.5,4.5.4,5.4.6s3.8,1.6,5.7,2.3c3.6,1.4,2.5,1.7,4.6-2.7s1.9-4.4-3-6.7c-.4-.2-6-1.5-5.9-1.9h.1c.9-1.5,5.7.9,6.6,1.3,4.8,2.3,3.9,3.7,8-.1a21.7,21.7,0,0,1,4.4-3.2L97.9,152c-4.6,4.4-9.6,11.7-8,18.4s11.3,8.2,17.9,7.7c3.8-.3,6.9-2,10.5-3s6.5-1,9.7-2.2a70,70,0,0,0,17.9-10.1c5.5-3.9,10.9-7.7,16.1-12,3.6-3.1,11.8-10.8,10.6-16.4s-3.1-7.5-7.3-8.5-5,1.4-4.1,5.6,1.8,7.7-2.3,11.6-7.6,5.3-11.6,7.9c-7.8,4.9-15.1,10.3-23.9,13.3-1.9.7-23.3,5.5-22.7,1.7.2-.7,2-3.8,2.2-4.6a63.5,63.5,0,0,0,2.3-10.5c.5-3.6-.1-4.5-1.3-4.1a9.4,9.4,0,0,0,1.7-1.8c1.4-2.1,2.2-7.2,2.4-9.7s-17.2,7.7-18.7,8.8S85,147.3,82,150,74.3,157.5,75.6,159Zm13.1,6.8c-.4-4.1-8.3-6-11.8-5.7-5.9.5-7.3,8.5-8.7,13.4-2.5,9.1,3.1,20.4,11.5,25.4,2.6,1.5,14.4,8.4,17.1,6.9s.1-7,.3-8.7a42.9,42.9,0,0,1,2-9.3c.6-1.7,4.4-6.3,4.3-7.8s-3.9-1.3-5.9-1.7C91.6,177.1,87.2,172.3,88.7,165.8ZM67.4,106.4c-.8,1-8.4-.7-10.6,1.5-3.8,3.8-.1,8.9,3.2,11.3s6.4,7.7,11.2,8.7c2.4.5,4.1-.2,6.3-1.1l4.3-2c1.9.3,1.4,2.5,3.9,3.4,5.2,1.8,12.6.1,17.6-1.2.7-.1,4.8-1.8,5.7-1.4s0,.9.2,1.2-.1,6.3-.4,8.1c-.6,4.6-2,9-2.6,13.6-.3,2.9-.3,5.6-1.1,8.5s-2.6,5.1-2.3,7c1.1,7.1,23.1-2,27.3-3.8s9.2-5.1,13.7-8,10.5-5.7,14.5-9.9,3-11.1,1.2-18l.3.4c1,1.1,4.6.1,6.5.6s5.1,5.2,8,5.7,6.5-1.6,9.3-1.5c4.3,0,7.7,1.6,11.6,3.3-4.3-5-12.7-9.6-18.8-11.7a43.4,43.4,0,0,0-12.9-2.5c-2.2-.1-4.4.6-5,2.2-1.2-3.8-2.7-7.3-3.7-9.8-2.5-5.8-4-12.6-7.4-18.1-1.3-2.2-2.8-3.2-3.2-5.5s.5-4.2.7-6c.4-3.4,2.9-32.9.5-33.5-.8-.2-8.2,9.2-9.8,10.6-3.4,3-7.5,6.7-11.5,8.9s-8.9,1.4-13.1,3.1-8.8,3.6-12,7.3a24.1,24.1,0,0,0-3,4.8c-.6.9-1.5,4.5-1.9,4.9-1.6,2-2.5,1.3-5.1,2S67.9,104.8,68.2,105a.2.2,0,0,1-.2-.2c-.3-1.8,10.4-10,11.4-10.8,5-3.7,11.4-5.2,14.8-10.4,1.7-2.6,2.9-5.4,5.1-7.7s4-2.5,5.5-4.1c3.8-4.1,4.5-13.2,3-18.4-1-3.4-4.9-7.9,1.2-4s9.5,7.1,12.7,12.5c.7,1.1,2.7,3.2,1.5,4.1h-.1c-.7,0-3.1-5.1-3.5-5.7-2.1-3.3-8.3-10.5-12.5-10.7a20.5,20.5,0,0,1,2.1,11.9c-.1,1.1-2.6,8.3-2,8.9s5.9-1.8,6.6-2c3.2-.9,6.6-.3,9.6-1.7,6.7-3.2,13.3-9.8,18-15.4,1.1-1.3,2.7-2.6,3.5-4s0-2.1.2-2.4l2.1-1.6c-.2,1-.3,10.4-.2,11.3.1,4.1-.2,8-.5,12.1s.2,8.4-.3,12.6c-.7,5.7-1.5,7.3,1.5,12.1s5.8,13.5,8.5,20.2c1.8,4.5,1,5.8,5.9,5.8a47.7,47.7,0,0,1,13.5,2.2c12.3,3.6,29.2,15.8,25.3,30.2-3.4,12.8-16.2,25.3-26.8,32.4-12.9,8.8-27.7,17.6-42.4,22.9a73.1,73.1,0,0,1-23.2,3.7c-9.2.2-18.8-3.7-27-7.8-16.1-8-18-26.2-9-40.6a61,61,0,0,1,16.1-17.1,64.4,64.4,0,0,1,8.8-5.9c1.8-.9,9.9-2.9,10.7-4.4a4.6,4.6,0,0,0-.1-3.8c-1.2-2.6-.5-1.5-3.6-1.3s-8.6,2-13.2,1.9c-2.1,0-5.3.1-7.2-.8s-1.8-1.8-2.6-2c-3.8-.9-7.5,2.9-11.6,1.5s-6.7-5.2-9.7-7.8-4.9-3.4-5.5-7.2,1.1-6.2,4.8-7.5a26.3,26.3,0,0,1,5.8-.6C66.8,105.4,68,105.6,67.4,106.4Z"/></svg>